# xmcd
#
# Track frame offsets:
#	150
#	18239
#	35456
#	54170
#	67666
#	83035
#	98938
#	118387
#	141593
#
# Disc length: 2116 seconds
#
# Revision: 1
# Processed by: cddbd v1.5.2PL0 Copyright (c) Steve Scherf et al.
# Submitted via: audiograbber 1.83.01
#
DISCID=72084209
DTITLE=Sorta - Sorta 2008
DYEAR=2008
DGENRE=
TTITLE0=Make A Wish
TTITLE1=Grown Man
TTITLE2=Fool´s Gold
TTITLE3=Bjorn Yesterday
TTITLE4=Poor Little Child
TTITLE5=Soft Kissess
TTITLE6=I´ll Be There
TTITLE7=Always
TTITLE8=Afraid Of The Dark
EXTD=
EXTT0=
EXTT1=
EXTT2=
EXTT3=
EXTT4=
EXTT5=
EXTT6=
EXTT7=
EXTT8=
PLAYORDER=
